<?xml version="1.0" encoding="utf-8"?><!-- Uploaded to: SVG Repo, www.svgrepo.com, Generator: SVG Repo Mixer Tools -->
<svg fill="#000000" width="800px" height="800px" viewBox="0 0 24 24" id="send-alt" data-name="Flat Color" xmlns="http://www.w3.org/2000/svg" class="icon flat-color"><path id="primary" d="M21.88,4.73,16.2,20.65A2,2,0,0,1,14.3,22h0a2,2,0,0,1-1.9-1.31l-2.13-5.52-.38-1-1-.4L3.31,11.63a2,2,0,0,1,0-3.83h0L19.27,2.12a2,2,0,0,1,2.61,2.61Z" style="fill: rgb(0, 0, 0);"></path><path id="secondary" d="M14.28,11.14l-4,4-.38-1-1-.4,4-4a1,1,0,1,1,1.42,1.42Z" style="fill: rgb(44, 169, 188);"></path></svg>